<svg fill="none" xmlns="http://www.w3.org/2000/svg" viewBox="0 0 312 89"><path d="M.907 14.052c.439-.345.675-.558.936-.733 5.983-4.01 11.975-8.007 17.95-12.03.709-.477 1.408-.654 2.258-.542 4.856.639 9.72 1.23 14.578 1.861 2.429.316 4.85.683 7.276 1.028.14.02.28.06.552.12-.231.219-.38.403-.567.53-2.115 1.441-4.245 2.86-6.348 4.318-.828.574-1.655.728-2.676.615-5.77-.644-11.393.072-16.763 2.293-2.085.863-4.07 1.986-6.046 3.087-.98.545-1.92.815-3.026.577-.784-.169-1.59-.236-2.39-.332-.238-.028-.484.004-.848.01.166.754.309 1.422.46 2.089.212.925.434 1.85.642 2.776.152.683.27 1.352 1.04 1.681.47.2.408.688.238 1.055-.302.643-.084 1.143.2 1.73 1.093 2.243 1.797 4.626 2.368 7.05.024.097-.012.21-.023.345-.437.016-.879-.034-1.283.063-.414.101-.794.347-1.262.561-.078-.234-.184-.456-.223-.686a525.704 525.704 0 01-.943-5.95 4.531 4.531 0 01-.024-1.201c.066-.545.008-.959-.508-1.31-.534-.362-.542-.955-.221-1.469.303-.482.297-.934.168-1.456-.388-1.56-.776-3.121-1.096-4.696-.136-.672-.475-.881-1.11-.937-1.017-.09-2.026-.268-3.309-.447z" fill="gray"/><path d="M13.59 25.438l-2.08-8.842c7.513-5.02 15.71-6.969 24.741-5.79l2.06 8.758c-9.272-2.402-17.492-.629-24.721 5.874zM57.864 21.493c-1.201 0-2.233-.173-3.097-.521-.863-.346-1.579-.832-2.146-1.46a5.943 5.943 0 01-1.256-2.207c-.27-.847-.405-1.777-.405-2.792V3.52h3.223v10.687c0 .796.089 1.476.266 2.042.178.568.431 1.028.762 1.383.33.356.718.619 1.168.788.448.17.95.255 1.51.255.558 0 1.064-.086 1.523-.255.456-.17.85-.432 1.179-.788.33-.355.584-.815.762-1.383.178-.566.267-1.246.267-2.042V3.52h3.223v10.992c0 1.015-.139 1.945-.419 2.792a6.1 6.1 0 01-1.268 2.208c-.568.627-1.29 1.113-2.172 1.459-.879.348-1.92.52-3.12.52zM87.891 21.112a113.518 113.518 0 00-1.929-3.108c-.71-1.111-1.447-2.226-2.208-3.351a89.675 89.675 0 00-2.323-3.275 63.316 63.316 0 00-2.246-2.856v12.59h-3.147V3.522h2.615a39.33 39.33 0 012.182 2.526 122.017 122.017 0 014.632 6.193 78.48 78.48 0 011.967 2.956V3.522h3.172v17.59h-2.715zM101.927 3.522h3.197V21.11h-3.197V3.52zM121.473 21.112a157.333 157.333 0 01-3.67-8.606 200.54 200.54 0 01-3.288-8.984h3.53l1.246 3.63c.424 1.236.849 2.449 1.272 3.642.425 1.192.849 2.348 1.273 3.464.424 1.116.839 2.14 1.247 3.072.39-.932.796-1.95 1.222-3.058.422-1.108.851-2.264 1.283-3.466.433-1.201.861-2.418 1.285-3.654.424-1.235.832-2.446 1.223-3.63h3.427a239.46 239.46 0 01-3.311 8.984 151.334 151.334 0 01-3.669 8.606h-3.07zM140.889 21.112V3.522h11.294v2.716h-8.097v4.34h7.208v2.666h-7.208v5.152h8.707v2.716h-11.904zM167.945 6.11c-.677 0-1.303.026-1.879.077v5.685h1.398c.778 0 1.461-.041 2.054-.127.592-.083 1.088-.236 1.486-.457.398-.22.697-.516.901-.888.203-.372.304-.845.304-1.421 0-.541-.101-.999-.304-1.37a2.272 2.272 0 00-.876-.889 4.15 4.15 0 00-1.357-.47 10.03 10.03 0 00-1.727-.14zm-.228-2.766c2.539 0 4.48.466 5.825 1.396 1.344.93 2.018 2.352 2.018 4.264 0 2.386-1.176 4.002-3.528 4.848.321.39.685.864 1.092 1.423a41.586 41.586 0 012.461 3.818c.389.686.736 1.358 1.041 2.018h-3.58a37.362 37.362 0 00-1.04-1.839 61.536 61.536 0 00-1.129-1.802 41.094 41.094 0 00-2.171-3.033c-.236.016-.44.024-.609.024h-2.031v6.65h-3.197V3.776c.777-.17 1.607-.284 2.487-.344a35.927 35.927 0 012.361-.088M190.487 18.727c1.15 0 1.987-.195 2.514-.584.522-.39.785-.942.785-1.65 0-.424-.089-.788-.267-1.093a2.792 2.792 0 00-.761-.824 6.388 6.388 0 00-1.205-.685 17.97 17.97 0 00-1.626-.623c-.609-.22-1.196-.46-1.762-.723a5.95 5.95 0 01-1.499-.977 4.49 4.49 0 01-1.04-1.396c-.263-.541-.393-1.193-.393-1.955 0-1.59.549-2.838 1.649-3.744 1.1-.905 2.597-1.357 4.493-1.357 1.099 0 2.078.123 2.931.367.856.245 1.527.513 2.019.8l-.99 2.59a7.599 7.599 0 00-1.892-.737 8.866 8.866 0 00-2.118-.253c-.864 0-1.536.177-2.019.533-.483.355-.724.853-.724 1.497 0 .39.081.723.241 1.003.162.279.39.528.687.748.295.22.641.424 1.04.61.397.186.833.363 1.307.533.828.305 1.57.613 2.22.926a6.283 6.283 0 011.65 1.116c.45.432.791.94 1.03 1.523.236.584.354 1.292.354 2.121 0 1.59-.564 2.82-1.689 3.692-1.125.872-2.769 1.308-4.935 1.308a13.023 13.023 0 01-3.592-.484 10.637 10.637 0 01-1.205-.418 7.044 7.044 0 01-.812-.392l.939-2.615c.456.252 1.073.507 1.853.761.779.254 1.717.382 2.817.382zM207.035 3.522h3.197V21.11h-3.197V3.52zM224.752 18.472c.187.016.432.03.737.038.304.008.719.014 1.243.014 2.149 0 3.753-.548 4.811-1.638 1.056-1.091 1.585-2.62 1.585-4.582 0-1.997-.515-3.528-1.547-4.594-1.033-1.066-2.632-1.6-4.798-1.6-.948 0-1.624.026-2.031.077v12.285zm11.728-6.168c0 1.523-.239 2.847-.711 3.972-.474 1.127-1.146 2.066-2.018 2.818-.872.754-1.92 1.312-3.147 1.674-1.227.364-2.587.547-4.075.547-.71 0-1.514-.03-2.412-.09a16.127 16.127 0 01-2.562-.367V3.776a15.31 15.31 0 012.588-.356c.914-.05 1.726-.076 2.437-.076 1.473 0 2.817.174 4.035.52 1.22.348 2.264.888 3.136 1.626.872.734 1.544 1.666 2.018 2.79.472 1.127.711 2.468.711 4.024zM253.167 6.923c-.389.897-.833 1.99-1.332 3.274-.5 1.286-1.02 2.683-1.562 4.188h5.788a172.332 172.332 0 00-1.574-4.213 104.957 104.957 0 00-1.32-3.25zm5.191 14.19a68.402 68.402 0 00-.739-2.058 63.09 63.09 0 01-.737-2.08h-7.429c-.239.71-.48 1.408-.726 2.093-.245.685-.486 1.367-.725 2.044h-3.325c.658-1.88 1.285-3.612 1.876-5.203.592-1.592 1.17-3.097 1.737-4.518a142.619 142.619 0 011.687-4.062 127.66 127.66 0 011.724-3.808h3.053a127.675 127.675 0 011.725 3.808c.559 1.287 1.122 2.64 1.69 4.062a269.964 269.964 0 011.75 4.518 234.9 234.9 0 011.892 5.203h-3.453zM274.322 18.472c.188.016.433.03.739.038a47.5 47.5 0 001.241.014c2.151 0 3.753-.548 4.811-1.638 1.057-1.091 1.586-2.62 1.586-4.582 0-1.997-.516-3.528-1.548-4.594-1.033-1.066-2.632-1.6-4.798-1.6-.948 0-1.624.026-2.031.077v12.285zm11.728-6.168c0 1.523-.239 2.847-.711 3.972-.474 1.127-1.146 2.066-2.018 2.818-.871.754-1.92 1.312-3.147 1.674-1.227.364-2.587.547-4.075.547-.709 0-1.514-.03-2.412-.09a16.114 16.114 0 01-2.561-.367V3.776a15.31 15.31 0 012.588-.356c.913-.05 1.725-.076 2.436-.076 1.473 0 2.817.174 4.036.52 1.219.348 2.264.888 3.135 1.626.872.734 1.544 1.666 2.018 2.79.472 1.127.711 2.468.711 4.024zM296.66 21.112V3.522h11.295v2.716h-8.099v4.34h7.209v2.666h-7.209v5.152h8.708v2.716H296.66z" fill="gray"/><path d="M35.5 37.045c-5.965 0-10.521 1.854-13.67 5.558-3.15 3.707-4.725 8.848-4.725 15.422 0 3.122.376 5.978 1.13 8.569.753 2.59 1.866 4.807 3.345 6.645 1.476 1.839 3.315 3.276 5.517 4.304 2.202 1.032 4.779 1.547 7.735 1.547 1.839 0 3.428-.07 4.765-.208 1.339-.14 2.396-.32 3.178-.543V57.523h10.534V85.36c-1.449.558-3.901 1.17-7.357 1.839-3.456.67-7.441 1.004-11.956 1.004-4.181 0-8-.67-11.455-2.007-3.457-1.337-6.397-3.286-8.821-5.85-2.425-2.562-4.307-5.712-5.644-9.446-1.339-3.733-2.007-8.026-2.007-12.874 0-4.848.738-9.138 2.215-12.871 1.477-3.733 3.499-6.897 6.063-9.488 2.562-2.592 5.573-4.556 9.03-5.893 3.455-1.34 7.135-2.006 11.036-2.006 2.676 0 5.059.18 7.148.543 2.091.364 3.888.767 5.395 1.212 1.504.447 2.744.919 3.72 1.421.975.502 1.657.864 2.048 1.087l-3.176 8.61c-1.673-1.005-3.75-1.853-6.23-2.55-2.48-.696-5.087-1.045-7.818-1.045zM65.517 87.031V29.105h37.208v8.942H76.051v14.295h23.747v8.775H76.05v16.97h28.68v8.944H65.517z" fill="#090"/><path d="M128.56 79.173c3.79 0 6.55-.638 8.278-1.92 1.726-1.282 2.592-3.096 2.592-5.434 0-1.395-.292-2.592-.878-3.595-.585-1.004-1.421-1.91-2.508-2.717-1.088-.806-2.412-1.56-3.972-2.256-1.561-.698-3.345-1.38-5.35-2.05a70.807 70.807 0 01-5.812-2.38c-1.868-.864-3.512-1.937-4.934-3.22a14.845 14.845 0 01-3.428-4.597c-.865-1.783-1.296-3.928-1.296-6.437 0-5.238 1.811-9.347 5.436-12.33 3.623-2.98 8.555-4.47 14.799-4.47 3.623 0 6.841.405 9.657 1.212 2.815.806 5.03 1.686 6.647 2.632l-3.26 8.526c-1.896-1.057-3.972-1.865-6.229-2.424a29.102 29.102 0 00-6.983-.836c-2.841 0-5.057.586-6.647 1.756-1.588 1.17-2.382 2.814-2.382 4.931 0 1.283.264 2.383.794 3.303.53.918 1.282 1.742 2.258 2.465.974.725 2.117 1.393 3.428 2.005a48.168 48.168 0 004.305 1.755c2.732 1.005 5.171 2.023 7.317 3.053 2.144 1.031 3.956 2.256 5.435 3.678a14.412 14.412 0 013.385 5.016c.78 1.922 1.171 4.25 1.171 6.98 0 5.237-1.853 9.292-5.56 12.161-3.707 2.87-9.128 4.305-16.263 4.305-2.397 0-4.585-.154-6.562-.46-1.98-.306-3.736-.682-5.268-1.126-1.534-.446-2.858-.907-3.972-1.382-1.116-.472-2.007-.904-2.675-1.296l3.093-8.608c1.504.836 3.539 1.672 6.104 2.508 2.563.836 5.656 1.252 9.28 1.252zM181.988 88.285c-3.96 0-7.359-.573-10.2-1.713-2.844-1.144-5.199-2.745-7.067-4.807-1.868-2.06-3.248-4.486-4.138-7.273-.894-2.785-1.339-5.85-1.339-9.193V29.104h10.619v35.19c0 2.62.294 4.862.878 6.73.587 1.868 1.423 3.385 2.508 4.556a9.994 9.994 0 003.848 2.59c1.475.558 3.135.837 4.974.837 1.838 0 3.512-.279 5.017-.836a9.929 9.929 0 003.888-2.59c1.088-1.172 1.924-2.689 2.508-4.557.587-1.868.877-4.11.877-6.73v-35.19h10.62V65.3c0 3.344-.461 6.408-1.38 9.193-.918 2.787-2.312 5.212-4.181 7.273-1.867 2.062-4.249 3.663-7.148 4.807-2.899 1.14-6.327 1.713-10.284 1.713zM239.137 40.305c-1.283 2.953-2.747 6.55-4.39 10.782a581.584 581.584 0 00-5.141 13.794h19.063a567.299 567.299 0 00-5.183-13.877c-1.673-4.29-3.124-7.858-4.349-10.7zm17.098 46.726a239.288 239.288 0 00-2.432-6.77 197.518 197.518 0 01-2.429-6.855h-24.475c-.782 2.34-1.578 4.64-2.39 6.896-.808 2.256-1.606 4.501-2.388 6.73h-10.955a983.02 983.02 0 016.181-17.138 706.412 706.412 0 015.723-14.877 485.493 485.493 0 015.555-13.376 430.291 430.291 0 015.682-12.536h10.058a435.744 435.744 0 015.685 12.536 494.676 494.676 0 015.56 13.376 873.4 873.4 0 015.771 14.877 805.899 805.899 0 016.229 17.137h-11.375zM290.096 79.173c3.791 0 6.55-.638 8.279-1.92 1.727-1.282 2.592-3.096 2.592-5.434 0-1.395-.293-2.592-.877-3.595-.586-1.004-1.422-1.91-2.51-2.717-1.088-.806-2.41-1.56-3.972-2.256-1.56-.698-3.344-1.38-5.35-2.05a71.075 71.075 0 01-5.811-2.38c-1.869-.864-3.512-1.937-4.933-3.22a14.814 14.814 0 01-3.428-4.597c-.866-1.783-1.296-3.928-1.296-6.437 0-5.238 1.81-9.347 5.436-12.33 3.621-2.98 8.554-4.47 14.798-4.47 3.622 0 6.842.405 9.656 1.212 2.816.806 5.031 1.686 6.648 2.632l-3.26 8.526c-1.896-1.057-3.973-1.865-6.23-2.424a29.102 29.102 0 00-6.983-.836c-2.841 0-5.057.586-6.645 1.756-1.588 1.17-2.383 2.814-2.383 4.931 0 1.283.263 2.383.795 3.303.528.918 1.28 1.742 2.257 2.465.973.725 2.117 1.393 3.427 2.005a48.315 48.315 0 004.306 1.755c2.731 1.005 5.171 2.023 7.316 3.053 2.146 1.031 3.958 2.256 5.435 3.678a14.431 14.431 0 013.387 5.016c.778 1.922 1.169 4.25 1.169 6.98 0 5.237-1.853 9.292-5.56 12.161-3.707 2.87-9.127 4.305-16.263 4.305-2.396 0-4.584-.154-6.562-.46-1.979-.306-3.735-.682-5.267-1.126-1.535-.446-2.859-.907-3.973-1.382-1.115-.472-2.006-.904-2.675-1.296l3.095-8.608c1.504.836 3.537 1.672 6.102 2.508 2.563.836 5.658 1.252 9.28 1.252z" fill="#044BA8"/></svg>