<svg width="0" height="0" xmlns="http://www.w3.org/2000/svg">
    <defs>
        <symbol id="facebook" width="9" height="18" viewBox="0 0 9 18" fill="none">
            <path d="M7.357 2.989h1.644V.127A21.22 21.22 0 006.607 0c-2.37 0-3.993 1.49-3.993 4.23v2.52H0v3.2h2.615V18H5.82V9.95h2.509l.398-3.2H5.819V4.547c.001-.924.25-1.557 1.538-1.557z" fill="#939393"/>
        </symbol>


        <symbol id="linkedin" width="18" height="18" fill="none">
            <path d="M17.995 18H18v-6.602c0-3.23-.695-5.717-4.47-5.717-1.816 0-3.034.995-3.531 1.94h-.053V5.982h-3.58v12.017h3.728v-5.95c0-1.567.297-3.082 2.238-3.082 1.911 0 1.94 1.788 1.94 3.182V18h3.723zM.297 5.983h3.732V18H.297V5.983zM2.162 0A2.162 2.162 0 000 2.162c0 1.193.968 2.181 2.162 2.181 1.193 0 2.161-.988 2.161-2.181A2.163 2.163 0 002.161 0z" fill="#939393"/>
        </symbol>
    </defs>
</svg>