<svg width="0" height="0" class="hidden" xmlns="http://www.w3.org/2000/svg">
<defs>
  <symbol width="24" height="29" viewBox="0 0 24 29" id="e-mail">
    <path d="M0 14.0871V25.9129C0 26.3401 0.501059 26.5705 0.825396 26.2925L6.8254 21.1497C6.93622 21.0547 7 20.916 7 20.77V19.23C7 19.084 6.93622 18.9453 6.8254 18.8503L0.825396 13.7075C0.501059 13.4295 0 13.6599 0 14.0871Z" fill="white"/>
    <path d="M9.85209 0.156128L1.32471 9.15725C1.14244 9.34964 1.14195 9.65082 1.32358 9.84381L8.85194 17.8427C8.94642 17.9431 9.07817 18 9.21604 18H14.784C14.9218 18 15.0536 17.9431 15.1481 17.8427L22.6764 9.84381C22.858 9.65082 22.8576 9.34964 22.6753 9.15725L14.1479 0.156128C14.0535 0.0564571 13.9222 0 13.7849 0H10.2151C10.0778 0 9.94651 0.0564571 9.85209 0.156128Z" fill="white"/>
    <path d="M9.85083 20.1678L2.73972 28.1678C2.45309 28.4903 2.682 29 3.11342 29H20.8866C21.318 29 21.5469 28.4903 21.2603 28.1678L14.1492 20.1678C14.0543 20.0611 13.9183 20 13.7755 20H10.2245C10.0817 20 9.94571 20.0611 9.85083 20.1678Z" fill="white"/>
    <path d="M24 13.2071V25.9129C24 26.3401 23.4989 26.5705 23.1746 26.2925L17.1746 21.1497C17.0638 21.0547 17 20.916 17 20.77V19.2071C17 19.0745 17.0527 18.9473 17.1464 18.8536L23.1464 12.8536C23.4614 12.5386 24 12.7617 24 13.2071Z" fill="white"/>
  </symbol>

  <symbol viewBox="0 0 300 280" id="local">
    <path d="M105 233C44 149 35 122 51 75 70 20 124-8 181 9c22 7 46 23 56 38 29 44 22 85-30 162-26 39-52 71-57 71s-25-21-45-47zm80-99c22-23 15-56-15-71-47-23-92 34-55 71 21 20 49 20 70 0z" fill="#fff"></path>
  </symbol>

  <symbol viewBox="0 0 300 300" id="telefone">
    <path d="M145 263c-39-20-103-81-121-115C7 115 6 48 22 32 46 8 79 18 97 56c14 29 15 38 4 56s-9 24 16 50c42 45 61 53 82 34s32-20 66-4c27 12 35 54 13 76-17 17-97 14-133-5z" fill="#fff"></path>
  </symbol>

  <symbol width="18" height="18" viewBox="0 0 18 18" fill="none" id="linkedin">
    <path d="M17.9955 18V17.9992H18V11.3977C18 8.16825 17.3047 5.6805 13.5292 5.6805C11.7142 5.6805 10.4962 6.6765 9.99899 7.62075H9.9465V5.982H6.36674V17.9992H10.0942V12.0487C10.0942 10.482 10.3912 8.967 12.3315 8.967C14.2432 8.967 14.2717 10.755 14.2717 12.1492V18H17.9955Z" fill="#939393"/>
    <path d="M0.296997 5.98276H4.029V18H0.296997V5.98276Z" fill="#939393"/>
    <path d="M2.1615 0C0.96825 0 0 0.96825 0 2.1615C0 3.35475 0.96825 4.34325 2.1615 4.34325C3.35475 4.34325 4.323 3.35475 4.323 2.1615C4.32225 0.96825 3.354 0 2.1615 0V0Z" fill="#939393"/>
  </symbol>  

  <symbol width="18" height="18" viewBox="0 0 18 18" fill="none" id="instagram">
    <path d="M12.375 0H5.625C2.51888 0 0 2.51888 0 5.625V12.375C0 15.4811 2.51888 18 5.625 18H12.375C15.4811 18 18 15.4811 18 12.375V5.625C18 2.51888 15.4811 0 12.375 0ZM16.3125 12.375C16.3125 14.5462 14.5462 16.3125 12.375 16.3125H5.625C3.45375 16.3125 1.6875 14.5462 1.6875 12.375V5.625C1.6875 3.45375 3.45375 1.6875 5.625 1.6875H12.375C14.5462 1.6875 16.3125 3.45375 16.3125 5.625V12.375Z" fill="#939393"/>
    <path d="M9 4.5C6.51487 4.5 4.5 6.51487 4.5 9C4.5 11.4851 6.51487 13.5 9 13.5C11.4851 13.5 13.5 11.4851 13.5 9C13.5 6.51487 11.4851 4.5 9 4.5ZM9 11.8125C7.44975 11.8125 6.1875 10.5503 6.1875 9C6.1875 7.44863 7.44975 6.1875 9 6.1875C10.5503 6.1875 11.8125 7.44863 11.8125 9C11.8125 10.5503 10.5503 11.8125 9 11.8125Z" fill="#939393"/>
    <path d="M13.8375 4.76212C14.1687 4.76212 14.4371 4.49366 14.4371 4.1625C14.4371 3.83134 14.1687 3.56288 13.8375 3.56288C13.5063 3.56288 13.2379 3.83134 13.2379 4.1625C13.2379 4.49366 13.5063 4.76212 13.8375 4.76212Z" fill="#939393"/>
  </symbol>

  <symbol width="9" height="18" viewBox="0 0 9 18" fill="none" id="facebook">
    <path d="M7.3575 2.98875H9.00075V0.12675C8.71725 0.08775 7.74225 0 6.60675 0C4.2375 0 2.6145 1.49025 2.6145 4.22925V6.75H0V9.9495H2.6145V18H5.82V9.95025H8.32875L8.727 6.75075H5.81925V4.5465C5.82 3.62175 6.069 2.98875 7.3575 2.98875V2.98875Z" fill="#939393"/>
  </symbol>
  

</defs>
</svg>