<svg fill="none" xmlns="http://www.w3.org/2000/svg" viewBox="0 0 196 196"><path fill-rule="evenodd" clip-rule="evenodd" d="M.956 195.125c5.281-17.05 11.402-33.26 16.998-49.994C-19.141 80.253 26.766 7.216 88.945 1.149c58.707-5.729 106.841 36.439 106.987 93.988.153 60.723-58.74 111.713-124.985 90.988-4.997-1.563-11.18-6.657-16.998-6.999-8.13-.479-18.787 5.359-26.997 7.999-8.999 2.895-16.824 5.796-25.996 8zm54.993-33.996c53.495 32.466 117.551-3.949 122.985-56.993 4.918-48.019-33.424-90.745-84.99-86.989-58.87 4.287-94.232 74.559-57.993 125.984a509.702 509.702 0 00-8.999 26.997c9.822-2.844 18.876-6.455 28.997-8.999z" fill="#fff"/><path fill-rule="evenodd" clip-rule="evenodd" d="M76.947 50.143c5.627 11.77 14.33 29.179 0 36.996 7.278 15.386 19.31 26.017 34.995 32.996 5.216-3.45 8.641-8.691 12.999-12.998 9.104 3.561 17.614 7.715 24.996 12.998.759 17.201-13.736 23.562-25.996 22.997-25.865-1.19-61.414-33.867-69.991-57.993-5.09-14.315.764-41.695 22.997-34.996z" fill="#fff"/></svg>