<svg fill="none" xmlns="http://www.w3.org/2000/svg" viewBox="0 0 13 16"><path d="M.538 14.765c.904-2.166 2.9-3.96 3.397-6.254C2.853 6.11.819 4.087 0 1.395c.273-.942 2.286-.121 2.863.077 1.661.779 2.325 2.723 3.224 4.192C7.457 4.219 8.37.594 10.225 0c.782.254 3.305.875 2.533 1.92C11.134 4.003 9.613 6.177 8.57 8.57c1.036 2.23 2.849 4.067 3.866 6.458-.052 1.13-2.255.547-3.037.293-1.167-1.111-1.83-2.65-2.966-3.757-1.25.827-1.647 4.35-3.118 4.437-.488.008-2.625-1.136-2.792-1.237" fill="#B9372A"/></svg>